<svg width="181" height="37" viewBox="0 0 181 37" fill="none" xmlns="http://www.w3.org/2000/svg">
<path d="M18.22 27.56C16.62 27.56 15.13 27.3 13.75 26.78C12.39 26.24 11.2 25.49 10.18 24.53C9.18 23.55 8.4 22.4 7.84 21.08C7.28 19.76 7 18.32 7 16.76C7 15.2 7.28 13.76 7.84 12.44C8.4 11.12 9.19 9.98 10.21 9.02C11.23 8.04 12.42 7.29 13.78 6.77C15.14 6.23 16.63 5.96 18.25 5.96C19.97 5.96 21.54 6.26 22.96 6.86C24.38 7.44 25.58 8.31 26.56 9.47L24.04 11.84C23.28 11.02 22.43 10.41 21.49 10.01C20.55 9.59 19.53 9.38 18.43 9.38C17.33 9.38 16.32 9.56 15.4 9.92C14.5 10.28 13.71 10.79 13.03 11.45C12.37 12.11 11.85 12.89 11.47 13.79C11.11 14.69 10.93 15.68 10.93 16.76C10.93 17.84 11.11 18.83 11.47 19.73C11.85 20.63 12.37 21.41 13.03 22.07C13.71 22.73 14.5 23.24 15.4 23.6C16.32 23.96 17.33 24.14 18.43 24.14C19.53 24.14 20.55 23.94 21.49 23.54C22.43 23.12 23.28 22.49 24.04 21.65L26.56 24.05C25.58 25.19 24.38 26.06 22.96 26.66C21.54 27.26 19.96 27.56 18.22 27.56Z" fill="white"/>
<path d="M29.9369 27.26V11.24H33.5069V15.65L33.0869 14.36C33.5669 13.28 34.3169 12.46 35.3369 11.9C36.3769 11.34 37.6669 11.06 39.2069 11.06V14.63C39.0469 14.59 38.8969 14.57 38.7569 14.57C38.6169 14.55 38.4769 14.54 38.3369 14.54C36.9169 14.54 35.7869 14.96 34.9469 15.8C34.1069 16.62 33.6869 17.85 33.6869 19.49V27.26H29.9369Z" fill="white"/>
<path d="M49.4416 27.47C47.8016 27.47 46.3416 27.12 45.0616 26.42C43.7816 25.7 42.7716 24.72 42.0316 23.48C41.2916 22.24 40.9216 20.83 40.9216 19.25C40.9216 17.65 41.2916 16.24 42.0316 15.02C42.7716 13.78 43.7816 12.81 45.0616 12.11C46.3416 11.41 47.8016 11.06 49.4416 11.06C51.1016 11.06 52.5716 11.41 53.8516 12.11C55.1516 12.81 56.1616 13.77 56.8816 14.99C57.6216 16.21 57.9916 17.63 57.9916 19.25C57.9916 20.83 57.6216 22.24 56.8816 23.48C56.1616 24.72 55.1516 25.7 53.8516 26.42C52.5716 27.12 51.1016 27.47 49.4416 27.47ZM49.4416 24.26C50.3616 24.26 51.1816 24.06 51.9016 23.66C52.6216 23.26 53.1816 22.68 53.5816 21.92C54.0016 21.16 54.2116 20.27 54.2116 19.25C54.2116 18.21 54.0016 17.32 53.5816 16.58C53.1816 15.82 52.6216 15.24 51.9016 14.84C51.1816 14.44 50.3716 14.24 49.4716 14.24C48.5516 14.24 47.7316 14.44 47.0116 14.84C46.3116 15.24 45.7516 15.82 45.3316 16.58C44.9116 17.32 44.7016 18.21 44.7016 19.25C44.7016 20.27 44.9116 21.16 45.3316 21.92C45.7516 22.68 46.3116 23.26 47.0116 23.66C47.7316 24.06 48.5416 24.26 49.4416 24.26Z" fill="white"/>
<path d="M70.4575 27.47C69.1575 27.47 67.9675 27.17 66.8875 26.57C65.8275 25.97 64.9775 25.07 64.3375 23.87C63.7175 22.65 63.4075 21.11 63.4075 19.25C63.4075 17.37 63.7075 15.83 64.3075 14.63C64.9275 13.43 65.7675 12.54 66.8275 11.96C67.8875 11.36 69.0975 11.06 70.4575 11.06C72.0375 11.06 73.4275 11.4 74.6275 12.08C75.8475 12.76 76.8075 13.71 77.5075 14.93C78.2275 16.15 78.5875 17.59 78.5875 19.25C78.5875 20.91 78.2275 22.36 77.5075 23.6C76.8075 24.82 75.8475 25.77 74.6275 26.45C73.4275 27.13 72.0375 27.47 70.4575 27.47ZM61.5775 33.08V11.24H65.1475V15.02L65.0275 19.28L65.3275 23.54V33.08H61.5775ZM70.0375 24.26C70.9375 24.26 71.7375 24.06 72.4375 23.66C73.1575 23.26 73.7275 22.68 74.1475 21.92C74.5675 21.16 74.7775 20.27 74.7775 19.25C74.7775 18.21 74.5675 17.32 74.1475 16.58C73.7275 15.82 73.1575 15.24 72.4375 14.84C71.7375 14.44 70.9375 14.24 70.0375 14.24C69.1375 14.24 68.3275 14.44 67.6075 14.84C66.8875 15.24 66.3175 15.82 65.8975 16.58C65.4775 17.32 65.2675 18.21 65.2675 19.25C65.2675 20.27 65.4775 21.16 65.8975 21.92C66.3175 22.68 66.8875 23.26 67.6075 23.66C68.3275 24.06 69.1375 24.26 70.0375 24.26Z" fill="white"/>
<path d="M82.5039 33.08V5H89.6739V8H86.2539V30.08H89.6739V33.08H82.5039Z" fill="white"/>
<path d="M98.3622 27.44C96.7622 27.44 95.5222 27.01 94.6422 26.15C93.7622 25.29 93.3222 24.06 93.3222 22.46V7.88H96.2022V22.34C96.2022 23.2 96.4122 23.86 96.8322 24.32C97.2722 24.78 97.8922 25.01 98.6922 25.01C99.5922 25.01 100.342 24.76 100.942 24.26L101.842 26.33C101.402 26.71 100.872 26.99 100.252 27.17C99.6522 27.35 99.0222 27.44 98.3622 27.44ZM90.6222 13.73V11.36H100.762V13.73H90.6222Z" fill="white"/>
<path d="M105.324 27.26V11.36H108.084V15.68L107.814 14.6C108.254 13.5 108.994 12.66 110.034 12.08C111.074 11.5 112.354 11.21 113.874 11.21V14C113.754 13.98 113.634 13.97 113.514 13.97C113.414 13.97 113.314 13.97 113.214 13.97C111.674 13.97 110.454 14.43 109.554 15.35C108.654 16.27 108.204 17.6 108.204 19.34V27.26H105.324Z" fill="white"/>
<path d="M126.122 27.26V23.9L125.972 23.27V17.54C125.972 16.32 125.612 15.38 124.892 14.72C124.192 14.04 123.132 13.7 121.712 13.7C120.772 13.7 119.852 13.86 118.952 14.18C118.052 14.48 117.292 14.89 116.672 15.41L115.472 13.25C116.292 12.59 117.272 12.09 118.412 11.75C119.572 11.39 120.782 11.21 122.042 11.21C124.222 11.21 125.902 11.74 127.082 12.8C128.262 13.86 128.852 15.48 128.852 17.66V27.26H126.122ZM120.902 27.44C119.722 27.44 118.682 27.24 117.782 26.84C116.902 26.44 116.222 25.89 115.742 25.19C115.262 24.47 115.022 23.66 115.022 22.76C115.022 21.9 115.222 21.12 115.622 20.42C116.042 19.72 116.712 19.16 117.632 18.74C118.572 18.32 119.832 18.11 121.412 18.11H126.452V20.18H121.532C120.092 20.18 119.122 20.42 118.622 20.9C118.122 21.38 117.872 21.96 117.872 22.64C117.872 23.42 118.182 24.05 118.802 24.53C119.422 24.99 120.282 25.22 121.382 25.22C122.462 25.22 123.402 24.98 124.202 24.5C125.022 24.02 125.612 23.32 125.972 22.4L126.542 24.38C126.162 25.32 125.492 26.07 124.532 26.63C123.572 27.17 122.362 27.44 120.902 27.44Z" fill="white"/>
<path d="M141.111 27.44C139.491 27.44 138.041 27.09 136.761 26.39C135.501 25.69 134.511 24.73 133.791 23.51C133.071 22.29 132.711 20.89 132.711 19.31C132.711 17.73 133.071 16.33 133.791 15.11C134.511 13.89 135.501 12.94 136.761 12.26C138.041 11.56 139.491 11.21 141.111 11.21C142.551 11.21 143.831 11.5 144.951 12.08C146.091 12.64 146.971 13.48 147.591 14.6L145.401 16.01C144.881 15.23 144.241 14.66 143.481 14.3C142.741 13.92 141.941 13.73 141.081 13.73C140.041 13.73 139.111 13.96 138.291 14.42C137.471 14.88 136.821 15.53 136.341 16.37C135.861 17.19 135.621 18.17 135.621 19.31C135.621 20.45 135.861 21.44 136.341 22.28C136.821 23.12 137.471 23.77 138.291 24.23C139.111 24.69 140.041 24.92 141.081 24.92C141.941 24.92 142.741 24.74 143.481 24.38C144.241 24 144.881 23.42 145.401 22.64L147.591 24.02C146.971 25.12 146.091 25.97 144.951 26.57C143.831 27.15 142.551 27.44 141.111 27.44Z" fill="white"/>
<path d="M158.166 27.44C156.466 27.44 154.966 27.09 153.666 26.39C152.386 25.69 151.386 24.73 150.666 23.51C149.966 22.29 149.616 20.89 149.616 19.31C149.616 17.73 149.956 16.33 150.636 15.11C151.336 13.89 152.286 12.94 153.486 12.26C154.706 11.56 156.076 11.21 157.596 11.21C159.136 11.21 160.496 11.55 161.676 12.23C162.856 12.91 163.776 13.87 164.436 15.11C165.116 16.33 165.456 17.76 165.456 19.4C165.456 19.52 165.446 19.66 165.426 19.82C165.426 19.98 165.416 20.13 165.396 20.27H151.866V18.2H163.896L162.726 18.92C162.746 17.9 162.536 16.99 162.096 16.19C161.656 15.39 161.046 14.77 160.266 14.33C159.506 13.87 158.616 13.64 157.596 13.64C156.596 13.64 155.706 13.87 154.926 14.33C154.146 14.77 153.536 15.4 153.096 16.22C152.656 17.02 152.436 17.94 152.436 18.98V19.46C152.436 20.52 152.676 21.47 153.156 22.31C153.656 23.13 154.346 23.77 155.226 24.23C156.106 24.69 157.116 24.92 158.256 24.92C159.196 24.92 160.046 24.76 160.806 24.44C161.586 24.12 162.266 23.64 162.846 23L164.436 24.86C163.716 25.7 162.816 26.34 161.736 26.78C160.676 27.22 159.486 27.44 158.166 27.44Z" fill="white"/>
<path d="M174.375 33.08H167.235V30.08H170.625V8H167.235V5H174.375V33.08Z" fill="white"/>
</svg>
